<svg width="143" height="42" viewBox="0 0 143 42" fill="none" xmlns="http://www.w3.org/2000/svg">
<g filter="url(#filter0_d)">
<rect x="4" y="3" width="133" height="32" rx="4" fill="#7289DA"/>
</g>
<path d="M51.395 14.265H53.165V24H51.395V14.265ZM57.6907 17.97C58.1707 17 58.9407 16.515 60.0007 16.515C60.9007 16.515 61.5757 16.81 62.0257 17.4C62.4857 17.99 62.7157 18.77 62.7157 19.74V24H60.9457V19.74C60.9457 19.2 60.8157 18.795 60.5557 18.525C60.2957 18.245 59.9307 18.105 59.4607 18.105C58.9907 18.105 58.5857 18.315 58.2457 18.735C57.9157 19.155 57.7407 19.785 57.7207 20.625V24H55.9507V16.71H57.4957L57.6907 17.97ZM66.1214 16.71L67.7864 22.245L69.4664 16.71H71.5064L68.7914 24H66.7964L64.0814 16.71H66.1214ZM73.2247 16.695H74.9947V24H73.2247V16.695ZM73.0147 14.355C73.0147 14.035 73.1097 13.785 73.2997 13.605C73.4897 13.415 73.7597 13.32 74.1097 13.32C74.4497 13.32 74.7147 13.415 74.9047 13.605C75.1047 13.785 75.2047 14.035 75.2047 14.355C75.2047 14.675 75.1047 14.93 74.9047 15.12C74.7147 15.3 74.4497 15.39 74.1097 15.39C73.7597 15.39 73.4897 15.3 73.2997 15.12C73.1097 14.93 73.0147 14.675 73.0147 14.355ZM82.1066 23.82C81.4466 24.08 80.9266 24.21 80.5466 24.21C80.1666 24.21 79.8316 24.165 79.5416 24.075C79.2616 23.985 79.0116 23.85 78.7916 23.67C78.3316 23.26 78.1016 22.695 78.1016 21.975V17.895H77.0816V16.71H78.1016V14.79H79.8716V16.71H81.8516V17.895H79.8716V21.915C79.8716 22.515 80.1566 22.815 80.7266 22.815C81.0166 22.815 81.3916 22.735 81.8516 22.575L82.1066 23.82ZM88.9995 17.58C89.2495 17.9 89.4345 18.27 89.5545 18.69C89.6845 19.11 89.7495 19.495 89.7495 19.845C89.7495 20.195 89.7295 20.51 89.6895 20.79H84.9795C84.9995 21.38 85.1445 21.86 85.4145 22.23C85.6845 22.6 86.0945 22.785 86.6445 22.785C87.3745 22.785 87.8095 22.465 87.9495 21.825H89.7345C89.6145 22.555 89.2795 23.13 88.7295 23.55C88.1595 23.99 87.4645 24.21 86.6445 24.21C85.6845 24.21 84.8795 23.86 84.2295 23.16C83.5595 22.43 83.2245 21.495 83.2245 20.355C83.2245 19.185 83.5595 18.245 84.2295 17.535C84.8695 16.855 85.6745 16.515 86.6445 16.515C87.6545 16.515 88.4395 16.87 88.9995 17.58ZM86.6595 17.925C86.1595 17.925 85.7695 18.09 85.4895 18.42C85.2095 18.74 85.0445 19.155 84.9945 19.665H88.0995C88.0995 18.875 87.8495 18.345 87.3495 18.075C87.1595 17.975 86.9295 17.925 86.6595 17.925Z" fill="white"/>
<defs>
<filter id="filter0_d" x="0" y="0" width="143" height="42" filterUnits="userSpaceOnUse" color-interpolation-filters="sRGB">
<feFlood flood-opacity="0" result="BackgroundImageFix"/>
<feColorMatrix in="SourceAlpha" type="matrix" values="0 0 0 0 0 0 0 0 0 0 0 0 0 0 0 0 0 0 127 0"/>
<feOffset dx="1" dy="2"/>
<feGaussianBlur stdDeviation="2.5"/>
<feColorMatrix type="matrix" values="0 0 0 0 0 0 0 0 0 0 0 0 0 0 0 0 0 0 0.25 0"/>
<feBlend mode="normal" in2="BackgroundImageFix" result="effect1_dropShadow"/>
<feBlend mode="normal" in="SourceGraphic" in2="effect1_dropShadow" result="shape"/>
</filter>
</defs>
</svg>
